<svg width="13" height="13" viewBox="0 0 13 13" fill="none" xmlns="http://www.w3.org/2000/svg">
<path d="M6.26677 5.00001H7.4001V3.30001H9.1001V2.16667H7.4001V0.466675H6.26677V2.16667H4.56677V3.30001H6.26677V5.00001ZM4.0001 10.1C3.37676 10.1 2.87243 10.61 2.87243 11.2333C2.87243 11.8567 3.37676 12.3667 4.0001 12.3667C4.62343 12.3667 5.13343 11.8567 5.13343 11.2333C5.13343 10.61 4.62343 10.1 4.0001 10.1ZM9.66677 10.1C9.04343 10.1 8.5391 10.61 8.5391 11.2333C8.5391 11.8567 9.04343 12.3667 9.66677 12.3667C10.2901 12.3667 10.8001 11.8567 10.8001 11.2333C10.8001 10.61 10.2901 10.1 9.66677 10.1ZM4.09643 8.25834L4.11343 8.19034L4.62343 7.26668H8.8451C9.2701 7.26668 9.6441 7.03434 9.83677 6.68301L12.0241 2.71068L11.0381 2.16667H11.0324L10.4091 3.30001L8.8451 6.13334H4.8671L4.79343 5.98034L3.5241 3.30001L2.98576 2.16667L2.4531 1.03334H0.600098V2.16667H1.73343L3.77343 6.46768L3.00843 7.85601C2.91776 8.01468 2.86676 8.20168 2.86676 8.40001C2.86676 9.02334 3.37676 9.53334 4.0001 9.53334H10.8001V8.40001H4.2381C4.16443 8.40001 4.09643 8.33768 4.09643 8.25834Z" fill="white"/>
</svg>
