<svg width="24" height="22" viewBox="0 0 24 22" fill="none" xmlns="http://www.w3.org/2000/svg">
<path d="M17.6836 8.27961L12.9055 1.16964C12.8034 1.02608 12.6675 0.909533 12.5097 0.830181C12.3519 0.750829 12.1769 0.711087 12 0.714428C11.6509 0.714428 11.3018 0.866165 11.0945 1.18048L6.31636 8.27961H1.09091C0.490909 8.27961 0 8.76734 0 9.36345C0 9.461 0.0109091 9.55854 0.0436363 9.65609L2.81455 19.7033C3.06545 20.6137 3.90545 21.2857 4.90909 21.2857H19.0909C20.0945 21.2857 20.9345 20.6137 21.1964 19.7033L23.9673 9.65609L24 9.36345C24 8.76734 23.5091 8.27961 22.9091 8.27961H17.6836ZM8.72727 8.27961L12 3.51073L15.2727 8.27961H8.72727ZM12 16.9503C10.8 16.9503 9.81818 15.9749 9.81818 14.7826C9.81818 13.5904 10.8 12.615 12 12.615C13.2 12.615 14.1818 13.5904 14.1818 14.7826C14.1818 15.9749 13.2 16.9503 12 16.9503Z" fill="white"/>
</svg>
